<svg width="24" height="24" viewBox="0 0 24 24" fill="none" xmlns="http://www.w3.org/2000/svg">
<path d="M11.25 7.75H3.75" stroke="#1B1B1B" stroke-width="1.5" stroke-linecap="round"/>
<path d="M17.5 10C18.8807 10 20 8.88071 20 7.5C20 6.11929 18.8807 5 17.5 5C16.1193 5 15 6.11929 15 7.5C15 8.88071 16.1193 10 17.5 10Z" stroke="#1B1B1B" stroke-width="1.5"/>
<path d="M20.25 16.75H11.75" stroke="#1B1B1B" stroke-width="1.5" stroke-linecap="round"/>
<path d="M5.5 19C6.88071 19 8 17.8807 8 16.5C8 15.1193 6.88071 14 5.5 14C4.11929 14 3 15.1193 3 16.5C3 17.8807 4.11929 19 5.5 19Z" stroke="#1B1B1B" stroke-width="1.5"/>
</svg>
