<svg width="188" height="188" viewBox="0 0 188 188" fill="none" xmlns="http://www.w3.org/2000/svg">
<circle cx="94" cy="94" r="93.5" stroke="#262B2C"/>
<path d="M112.594 58.25C112.594 68.7952 104.045 77.3438 93.5 77.3438C82.955 77.3438 74.4062 68.7952 74.4062 58.25C74.4062 47.7048 82.955 39.1562 93.5 39.1562C104.045 39.1562 112.594 47.7048 112.594 58.25Z" stroke="#262B2C" stroke-width="1.5"/>
<path d="M130.219 122.992C130.219 129.311 126.64 135.448 120.019 140.178C113.406 144.902 104.044 147.961 93.5 147.961C82.9561 147.961 73.5944 144.902 66.9813 140.178C60.3598 135.448 56.7812 129.311 56.7812 122.992C56.7812 116.673 60.3598 110.536 66.9813 105.807C73.5944 101.083 82.9561 98.0234 93.5 98.0234C104.044 98.0234 113.406 101.083 120.019 105.807C126.64 110.536 130.219 116.673 130.219 122.992Z" stroke="#262B2C" stroke-width="1.5"/>
</svg>
