<svg width="24" height="24" viewBox="0 0 24 24" fill="none" xmlns="http://www.w3.org/2000/svg">
<path d="M3 11.9961H6.75M17.25 5.99609H21H17.25ZM3 5.99609H14.25H3ZM17.25 17.9961H21H17.25ZM3 17.9961H14.25H3ZM9.75 11.9961H21H9.75Z" stroke="#989AA2" stroke-width="1.5" stroke-linecap="round" stroke-linejoin="round"/>
<path d="M15.75 7.49609C16.5784 7.49609 17.25 6.82452 17.25 5.99609C17.25 5.16767 16.5784 4.49609 15.75 4.49609C14.9216 4.49609 14.25 5.16767 14.25 5.99609C14.25 6.82452 14.9216 7.49609 15.75 7.49609Z" stroke="#989AA2" stroke-width="1.5" stroke-linecap="round" stroke-linejoin="round"/>
<path d="M8.25 13.5C9.07843 13.5 9.75 12.8284 9.75 12C9.75 11.1716 9.07843 10.5 8.25 10.5C7.42157 10.5 6.75 11.1716 6.75 12C6.75 12.8284 7.42157 13.5 8.25 13.5Z" stroke="#989AA2" stroke-width="1.5" stroke-linecap="round" stroke-linejoin="round"/>
<path d="M15.75 19.4961C16.5784 19.4961 17.25 18.8245 17.25 17.9961C17.25 17.1677 16.5784 16.4961 15.75 16.4961C14.9216 16.4961 14.25 17.1677 14.25 17.9961C14.25 18.8245 14.9216 19.4961 15.75 19.4961Z" stroke="#989AA2" stroke-width="1.5" stroke-linecap="round" stroke-linejoin="round"/>
</svg>
