<svg width="53" height="57" viewBox="0 0 53 57" fill="none" xmlns="http://www.w3.org/2000/svg">
<g filter="url(#filter0_d_520_5312)">
<path d="M17.0498 47.455V29.6594M17.0498 29.6594V20.2802C17.0498 13.7837 25.32 11.027 29.218 16.2242V16.2242C31.9864 19.9155 30.325 25.2343 25.9476 26.6934L17.0498 29.6594ZM17.0498 29.6594L33.687 47.455" stroke="url(#paint0_linear_520_5312)" stroke-width="3.23135" stroke-linecap="round"/>
<path d="M17.0491 47.5039H5.96941C5.43402 47.5039 5 47.0698 5 46.5345V25.8935C5 20.3323 7.59975 15.0909 12.0272 11.7257L12.9346 11.0361C20.6073 5.20433 31.5584 6.71864 37.3606 14.4137V14.4137C39.6368 17.4324 40.868 21.1103 40.868 24.8911V33.2833V43.6262C40.868 45.7678 42.6041 47.5039 44.7456 47.5039V47.5039C46.8872 47.5039 48.6232 45.7678 48.6232 43.6262V42.0079" stroke="url(#paint1_linear_520_5312)" stroke-width="3.23135" stroke-linecap="round"/>
</g>
<defs>
<filter id="filter0_d_520_5312" x="0.799685" y="5.87109" width="52.0247" height="50.5076" filterUnits="userSpaceOnUse" color-interpolation-filters="sRGB">
<feFlood flood-opacity="0" result="BackgroundImageFix"/>
<feColorMatrix in="SourceAlpha" type="matrix" values="0 0 0 0 0 0 0 0 0 0 0 0 0 0 0 0 0 0 127 0" result="hardAlpha"/>
<feOffset dy="4.67253"/>
<feGaussianBlur stdDeviation="1.29254"/>
<feComposite in2="hardAlpha" operator="out"/>
<feColorMatrix type="matrix" values="0 0 0 0 0.72549 0 0 0 0 0.72549 0 0 0 0 0.72549 0 0 0 0.31 0"/>
<feBlend mode="normal" in2="BackgroundImageFix" result="effect1_dropShadow_520_5312"/>
<feBlend mode="normal" in="SourceGraphic" in2="effect1_dropShadow_520_5312" result="shape"/>
</filter>
<linearGradient id="paint0_linear_520_5312" x1="25.9476" y1="0" x2="25.9476" y2="47.455" gradientUnits="userSpaceOnUse">
<stop stop-color="#FF0F0F"/>
<stop offset="0.942708" stop-color="#FF8595"/>
</linearGradient>
<linearGradient id="paint1_linear_520_5312" x1="28.4031" y1="0.464844" x2="28.4031" y2="47.5039" gradientUnits="userSpaceOnUse">
<stop stop-color="#FF0F0F"/>
<stop offset="0.942708" stop-color="#FF8595"/>
</linearGradient>
</defs>
</svg>
