<svg width="153" height="39" viewBox="0 0 153 39" fill="none" xmlns="http://www.w3.org/2000/svg">
<g filter="url(#filter0_d_518_4895)">
<path d="M10.253 8.5045C11.7886 8.5045 13.0546 8.69236 14.0511 9.06808C15.0476 9.4438 15.7908 10.0156 16.2809 10.7833C16.771 11.5348 17.016 12.4904 17.016 13.6502C17.016 14.4997 16.8526 15.2266 16.5259 15.831C16.2156 16.4355 15.8072 16.9419 15.3008 17.3503C14.7944 17.7423 14.2471 18.0609 13.659 18.3059L18.6822 26H15.1537L10.9636 19.09H8.41527V26H5.27883V8.5045H10.253ZM10.057 11.1264H8.41527V16.5171H10.155C11.0208 16.5171 11.7232 16.411 12.2623 16.1986C12.8014 15.9862 13.1935 15.6759 13.4385 15.2675C13.6999 14.8591 13.8305 14.3527 13.8305 13.7483C13.8305 13.1112 13.6917 12.6048 13.414 12.229C13.1363 11.837 12.7197 11.5593 12.1643 11.3959C11.6252 11.2162 10.9228 11.1264 10.057 11.1264ZM67.8684 12.4741C69.3713 12.4741 70.4985 12.858 71.2499 13.6257C72.0177 14.3935 72.4016 15.635 72.4016 17.3503V26H69.3141V17.9383C69.3141 16.9582 69.1344 16.2231 68.775 15.733C68.4157 15.2266 67.8439 14.9734 67.0598 14.9734C65.9816 14.9734 65.2139 15.3246 64.7565 16.0271C64.2991 16.7295 64.0704 17.7505 64.0704 19.09V26H60.9829V17.9383C60.9829 17.2849 60.9013 16.7377 60.7379 16.2966C60.5745 15.8556 60.3213 15.5288 59.9783 15.3165C59.6516 15.0878 59.2268 14.9734 58.7041 14.9734C57.969 14.9734 57.3809 15.1531 56.9399 15.5125C56.4988 15.8556 56.1884 16.362 56.0087 17.0317C55.829 17.7015 55.7392 18.5264 55.7392 19.5066V26H52.6517V12.7191H55.0286L55.4696 14.4589H55.6412C55.9189 14.0015 56.2538 13.6257 56.6458 13.3317C57.0542 13.0376 57.5034 12.8253 57.9935 12.6946C58.4999 12.5476 59.0063 12.4741 59.5127 12.4741C60.5092 12.4741 61.3505 12.6456 62.0366 12.9886C62.7227 13.3154 63.2373 13.8299 63.5803 14.5324H63.8253C64.2337 13.8136 64.8055 13.2909 65.5406 12.9641C66.292 12.6374 67.068 12.4741 67.8684 12.4741ZM91.4865 12.4741C92.9894 12.4741 94.1166 12.858 94.868 13.6257C95.6358 14.3935 96.0197 15.635 96.0197 17.3503V26H92.9322V17.9383C92.9322 16.9582 92.7525 16.2231 92.3932 15.733C92.0338 15.2266 91.462 14.9734 90.6779 14.9734C89.5998 14.9734 88.832 15.3246 88.3746 16.0271C87.9172 16.7295 87.6885 17.7505 87.6885 19.09V26H84.601V17.9383C84.601 17.2849 84.5194 16.7377 84.356 16.2966C84.1927 15.8556 83.9395 15.5288 83.5964 15.3165C83.2697 15.0878 82.845 14.9734 82.3222 14.9734C81.5871 14.9734 80.999 15.1531 80.558 15.5125C80.1169 15.8556 79.8065 16.362 79.6268 17.0317C79.4471 17.7015 79.3573 18.5264 79.3573 19.5066V26H76.2699V12.7191H78.6467L79.0878 14.4589H79.2593C79.537 14.0015 79.8719 13.6257 80.2639 13.3317C80.6723 13.0376 81.1215 12.8253 81.6116 12.6946C82.118 12.5476 82.6244 12.4741 83.1308 12.4741C84.1273 12.4741 84.9686 12.6456 85.6547 12.9886C86.3408 13.3154 86.8554 13.8299 87.1984 14.5324H87.4434C87.8518 13.8136 88.4236 13.2909 89.1587 12.9641C89.9101 12.6374 90.6861 12.4741 91.4865 12.4741ZM105.181 12.4741C106.896 12.4741 108.195 12.8498 109.077 13.6012C109.975 14.3363 110.424 15.4962 110.424 17.0807V26H108.244L107.631 24.1622H107.533C107.157 24.636 106.765 25.0362 106.357 25.3629C105.965 25.6733 105.507 25.8938 104.985 26.0245C104.478 26.1715 103.858 26.245 103.122 26.245C102.338 26.245 101.628 26.098 100.991 25.804C100.37 25.5099 99.8798 25.0607 99.5204 24.4563C99.161 23.8355 98.9813 23.0596 98.9813 22.1284C98.9813 20.7563 99.4796 19.7271 100.476 19.041C101.489 18.3386 103.016 17.9547 105.058 17.8893L107.362 17.8158V17.1542C107.362 16.3048 107.157 15.7004 106.749 15.341C106.341 14.9816 105.769 14.8019 105.034 14.8019C104.364 14.8019 103.719 14.8999 103.098 15.0959C102.477 15.292 101.873 15.5207 101.285 15.782L100.305 13.6257C100.958 13.2827 101.701 13.005 102.534 12.7926C103.384 12.5803 104.266 12.4741 105.181 12.4741ZM105.744 19.7761C104.388 19.8251 103.449 20.062 102.926 20.4867C102.404 20.8951 102.142 21.4505 102.142 22.153C102.142 22.7737 102.33 23.2229 102.706 23.5006C103.082 23.7783 103.563 23.9172 104.152 23.9172C105.05 23.9172 105.81 23.664 106.43 23.1576C107.051 22.6349 107.362 21.8671 107.362 20.8543V19.7271L105.744 19.7761ZM119.439 23.7702C119.831 23.7702 120.207 23.7375 120.566 23.6722C120.926 23.5905 121.261 23.5006 121.571 23.4026V25.706C121.244 25.853 120.819 25.9755 120.297 26.0735C119.774 26.1879 119.227 26.245 118.655 26.245C117.904 26.245 117.217 26.1225 116.597 25.8775C115.992 25.6161 115.502 25.175 115.126 24.5543C114.767 23.9335 114.587 23.0677 114.587 21.9569V15.0469H112.799V13.6992L114.759 12.6211L115.739 9.80319H117.675V12.7191H121.448V15.0469H117.675V21.9324C117.675 22.5532 117.838 23.0187 118.165 23.3291C118.492 23.6232 118.916 23.7702 119.439 23.7702ZM129.59 12.4741C130.782 12.4741 131.803 12.7191 132.653 13.2092C133.518 13.6829 134.188 14.369 134.662 15.2675C135.136 16.1496 135.372 17.2277 135.372 18.5019V20.0702H126.6C126.633 21.279 126.968 22.2183 127.605 22.8881C128.242 23.5415 129.124 23.8682 130.251 23.8682C131.117 23.8682 131.885 23.7865 132.555 23.6232C133.241 23.4435 133.943 23.1903 134.662 22.8636V25.3384C134.008 25.6488 133.331 25.8775 132.628 26.0245C131.926 26.1715 131.084 26.245 130.104 26.245C128.814 26.245 127.662 26 126.649 25.5099C125.653 25.0035 124.869 24.2439 124.297 23.2311C123.741 22.2183 123.464 20.9604 123.464 19.4576C123.464 17.9383 123.717 16.6642 124.223 15.635C124.746 14.5895 125.465 13.8054 126.38 13.2827C127.294 12.7436 128.364 12.4741 129.59 12.4741ZM129.59 14.7529C128.773 14.7529 128.103 15.0224 127.58 15.5615C127.074 16.0843 126.772 16.8684 126.674 17.9138H132.383C132.383 17.2931 132.277 16.7458 132.065 16.2721C131.868 15.7984 131.566 15.4308 131.158 15.1695C130.749 14.8917 130.227 14.7529 129.59 14.7529ZM147.528 22.153C147.528 23.0351 147.315 23.7865 146.89 24.4073C146.466 25.0117 145.837 25.4691 145.004 25.7795C144.187 26.0898 143.182 26.245 141.99 26.245C141.059 26.245 140.258 26.1797 139.588 26.049C138.919 25.9183 138.282 25.7141 137.677 25.4364V22.8145C138.331 23.1249 139.058 23.3863 139.858 23.5987C140.658 23.811 141.402 23.9172 142.088 23.9172C142.937 23.9172 143.55 23.7865 143.926 23.5251C144.301 23.2638 144.489 22.9126 144.489 22.4715C144.489 22.2101 144.416 21.9733 144.269 21.7609C144.122 21.5485 143.836 21.328 143.411 21.0993C142.986 20.8543 142.341 20.5521 141.475 20.1927C140.626 19.8496 139.915 19.5066 139.343 19.1635C138.788 18.8205 138.363 18.4121 138.069 17.9383C137.791 17.4483 137.653 16.8357 137.653 16.1006C137.653 14.9081 138.126 14.0096 139.074 13.4052C140.021 12.7844 141.271 12.4741 142.823 12.4741C143.64 12.4741 144.407 12.5557 145.126 12.7191C145.861 12.8661 146.596 13.1112 147.332 13.4542L146.351 15.733C145.943 15.5533 145.535 15.3982 145.126 15.2675C144.734 15.1204 144.334 15.0061 143.926 14.9244C143.533 14.8427 143.133 14.8019 142.725 14.8019C142.055 14.8019 141.549 14.9081 141.206 15.1204C140.863 15.3165 140.691 15.5942 140.691 15.9536C140.691 16.2313 140.773 16.4763 140.936 16.6887C141.116 16.8847 141.418 17.0889 141.843 17.3013C142.284 17.4973 142.905 17.7587 143.705 18.0854C144.505 18.3957 145.183 18.7225 145.739 19.0655C146.311 19.3922 146.752 19.8006 147.062 20.2907C147.372 20.7808 147.528 21.4015 147.528 22.153Z" fill="url(#paint0_linear_518_4895)"/>
<path d="M35.1611 19.3969L29.7138 23.7547C27.6756 25.3852 24.7794 25.3852 22.7412 23.7547V23.7547C19.9486 21.5206 19.9486 17.2731 22.7412 15.039V15.039C24.7794 13.4085 27.6756 13.4085 29.7138 15.039L35.1611 19.3969ZM35.1611 19.3969L40.6084 23.7547C42.6466 25.3852 45.5427 25.3852 47.5809 23.7547V23.7547C50.3736 21.5206 50.3736 17.2731 47.5809 15.039V15.039C45.5427 13.4085 42.6466 13.4085 40.6084 15.039L35.1611 19.3969Z" stroke="url(#paint1_linear_518_4895)" stroke-width="2.37888"/>
</g>
<defs>
<filter id="filter0_d_518_4895" x="0.279297" y="8.50391" width="152.248" height="29.973" filterUnits="userSpaceOnUse" color-interpolation-filters="sRGB">
<feFlood flood-opacity="0" result="BackgroundImageFix"/>
<feColorMatrix in="SourceAlpha" type="matrix" values="0 0 0 0 0 0 0 0 0 0 0 0 0 0 0 0 0 0 127 0" result="hardAlpha"/>
<feOffset dy="7.23077"/>
<feGaussianBlur stdDeviation="2.5"/>
<feComposite in2="hardAlpha" operator="out"/>
<feColorMatrix type="matrix" values="0 0 0 0 0.725 0 0 0 0 0.725 0 0 0 0 0.725 0 0 0 0.31 0"/>
<feBlend mode="normal" in2="BackgroundImageFix" result="effect1_dropShadow_518_4895"/>
<feBlend mode="normal" in="SourceGraphic" in2="effect1_dropShadow_518_4895" result="shape"/>
</filter>
<linearGradient id="paint0_linear_518_4895" x1="76" y1="0" x2="76" y2="26.5455" gradientUnits="userSpaceOnUse">
<stop stop-color="#FF0F0F"/>
<stop offset="0.942708" stop-color="#FF8595"/>
</linearGradient>
<linearGradient id="paint1_linear_518_4895" x1="35.1611" y1="12.25" x2="35.1611" y2="26.5437" gradientUnits="userSpaceOnUse">
<stop stop-color="#FF0F0F"/>
<stop offset="0.942708" stop-color="#FF8595"/>
</linearGradient>
</defs>
</svg>
