<svg width="154" height="88" viewBox="0 0 154 88" fill="none" xmlns="http://www.w3.org/2000/svg">
<g filter="url(#filter0_d_552_5175)">
<path d="M10.8722 57.2076C12.4077 57.2076 13.6737 57.3955 14.6702 57.7712C15.6667 58.1469 16.41 58.7187 16.9 59.4865C17.3901 60.2379 17.6351 61.1935 17.6351 62.3534C17.6351 63.2028 17.4718 63.9298 17.1451 64.5342C16.8347 65.1386 16.4263 65.645 15.9199 66.0534C15.4135 66.4454 14.8662 66.764 14.2782 67.009L19.3014 74.7031H15.7729L11.5828 67.7931H9.03441V74.7031H5.89797V57.2076H10.8722ZM10.6761 59.8295H9.03441V65.2203H10.7742C11.64 65.2203 12.3424 65.1141 12.8815 64.9017C13.4205 64.6894 13.8126 64.379 14.0576 63.9706C14.319 63.5622 14.4497 63.0558 14.4497 62.4514C14.4497 61.8143 14.3108 61.3079 14.0331 60.9322C13.7554 60.5401 13.3389 60.2624 12.7834 60.099C12.2444 59.9193 11.5419 59.8295 10.6761 59.8295ZM68.4876 61.1772C69.9904 61.1772 71.1176 61.5611 71.869 62.3289C72.6368 63.0966 73.0207 64.3381 73.0207 66.0534V74.7031H69.9333V66.6415C69.9333 65.6613 69.7536 64.9262 69.3942 64.4362C69.0348 63.9298 68.463 63.6766 67.6789 63.6766C66.6008 63.6766 65.833 64.0278 65.3756 64.7302C64.9182 65.4326 64.6895 66.4536 64.6895 67.7931V74.7031H61.6021V66.6415C61.6021 65.988 61.5204 65.4408 61.357 64.9997C61.1937 64.5587 60.9405 64.232 60.5974 64.0196C60.2707 63.7909 59.846 63.6766 59.3232 63.6766C58.5881 63.6766 58.0001 63.8562 57.559 64.2156C57.1179 64.5587 56.8076 65.0651 56.6279 65.7348C56.4482 66.4046 56.3583 67.2296 56.3583 68.2097V74.7031H53.2709V61.4222H55.6477L56.0888 63.162H56.2603C56.538 62.7046 56.8729 62.3289 57.265 62.0348C57.6733 61.7408 58.1226 61.5284 58.6126 61.3977C59.119 61.2507 59.6255 61.1772 60.1319 61.1772C61.1283 61.1772 61.9696 61.3487 62.6557 61.6918C63.3418 62.0185 63.8564 62.5331 64.1994 63.2355H64.4445C64.8529 62.5167 65.4246 61.994 66.1597 61.6673C66.9112 61.3406 67.6871 61.1772 68.4876 61.1772ZM92.1057 61.1772C93.6085 61.1772 94.7357 61.5611 95.4872 62.3289C96.2549 63.0966 96.6388 64.3381 96.6388 66.0534V74.7031H93.5514V66.6415C93.5514 65.6613 93.3717 64.9262 93.0123 64.4362C92.6529 63.9298 92.0812 63.6766 91.2971 63.6766C90.2189 63.6766 89.4511 64.0278 88.9937 64.7302C88.5363 65.4326 88.3076 66.4536 88.3076 67.7931V74.7031H85.2202V66.6415C85.2202 65.988 85.1385 65.4408 84.9752 64.9997C84.8118 64.5587 84.5586 64.232 84.2155 64.0196C83.8888 63.7909 83.4641 63.6766 82.9414 63.6766C82.2063 63.6766 81.6182 63.8562 81.1771 64.2156C80.736 64.5587 80.4257 65.0651 80.246 65.7348C80.0663 66.4046 79.9764 67.2296 79.9764 68.2097V74.7031H76.889V61.4222H79.2658L79.7069 63.162H79.8784C80.1561 62.7046 80.491 62.3289 80.8831 62.0348C81.2915 61.7408 81.7407 61.5284 82.2308 61.3977C82.7372 61.2507 83.2436 61.1772 83.75 61.1772C84.7465 61.1772 85.5877 61.3487 86.2738 61.6918C86.9599 62.0185 87.4745 62.5331 87.8176 63.2355H88.0626C88.471 62.5167 89.0427 61.994 89.7778 61.6673C90.5293 61.3406 91.3052 61.1772 92.1057 61.1772ZM105.8 61.1772C107.515 61.1772 108.814 61.5529 109.696 62.3044C110.594 63.0395 111.044 64.1993 111.044 65.7839V74.7031H108.863L108.25 72.8654H108.152C107.776 73.3391 107.384 73.7393 106.976 74.066C106.584 74.3764 106.127 74.5969 105.604 74.7276C105.097 74.8746 104.477 74.9482 103.742 74.9482C102.957 74.9482 102.247 74.8011 101.61 74.5071C100.989 74.2131 100.499 73.7638 100.14 73.1594C99.7802 72.5386 99.6005 71.7627 99.6005 70.8316C99.6005 69.4594 100.099 68.4302 101.095 67.7441C102.108 67.0417 103.635 66.6578 105.677 66.5925L107.981 66.519V65.8574C107.981 65.0079 107.776 64.4035 107.368 64.0441C106.96 63.6847 106.388 63.505 105.653 63.505C104.983 63.505 104.338 63.603 103.717 63.7991C103.096 63.9951 102.492 64.2238 101.904 64.4852L100.924 62.3289C101.577 61.9858 102.32 61.7081 103.153 61.4957C104.003 61.2834 104.885 61.1772 105.8 61.1772ZM106.363 68.4792C105.008 68.5282 104.068 68.7651 103.546 69.1898C103.023 69.5982 102.761 70.1536 102.761 70.8561C102.761 71.4768 102.949 71.9261 103.325 72.2038C103.701 72.4815 104.183 72.6203 104.771 72.6203C105.669 72.6203 106.429 72.3671 107.05 71.8607C107.67 71.338 107.981 70.5702 107.981 69.5574V68.4302L106.363 68.4792ZM120.058 72.4733C120.45 72.4733 120.826 72.4406 121.185 72.3753C121.545 72.2936 121.88 72.2038 122.19 72.1058V74.4091C121.863 74.5561 121.439 74.6786 120.916 74.7766C120.393 74.891 119.846 74.9482 119.274 74.9482C118.523 74.9482 117.837 74.8256 117.216 74.5806C116.611 74.3192 116.121 73.8782 115.746 73.2574C115.386 72.6367 115.207 71.7709 115.207 70.66V63.7501H113.418V62.4024L115.378 61.3242L116.358 58.5063H118.294V61.4222H122.068V63.7501H118.294V70.6355C118.294 71.2563 118.457 71.7219 118.784 72.0322C119.111 72.3263 119.535 72.4733 120.058 72.4733ZM130.209 61.1772C131.401 61.1772 132.422 61.4222 133.272 61.9123C134.138 62.386 134.807 63.0721 135.281 63.9706C135.755 64.8527 135.992 65.9309 135.992 67.2051V68.7733H127.219C127.252 69.9821 127.587 70.9214 128.224 71.5912C128.861 72.2446 129.743 72.5713 130.87 72.5713C131.736 72.5713 132.504 72.4896 133.174 72.3263C133.86 72.1466 134.562 71.8934 135.281 71.5667V74.0415C134.628 74.3519 133.95 74.5806 133.247 74.7276C132.545 74.8746 131.704 74.9482 130.723 74.9482C129.433 74.9482 128.281 74.7031 127.268 74.2131C126.272 73.7066 125.488 72.947 124.916 71.9342C124.361 70.9214 124.083 69.6636 124.083 68.1607C124.083 66.6415 124.336 65.3673 124.843 64.3381C125.365 63.2927 126.084 62.5086 126.999 61.9858C127.914 61.4467 128.984 61.1772 130.209 61.1772ZM130.209 63.456C129.392 63.456 128.722 63.7256 128.2 64.2646C127.693 64.7874 127.391 65.5715 127.293 66.617H133.002C133.002 65.9962 132.896 65.449 132.684 64.9752C132.488 64.5015 132.185 64.1339 131.777 63.8726C131.369 63.5949 130.846 63.456 130.209 63.456ZM148.147 70.8561C148.147 71.7382 147.934 72.4896 147.51 73.1104C147.085 73.7148 146.456 74.1722 145.623 74.4826C144.806 74.793 143.801 74.9482 142.609 74.9482C141.678 74.9482 140.877 74.8828 140.208 74.7521C139.538 74.6214 138.901 74.4173 138.296 74.1395V71.5177C138.95 71.828 139.677 72.0894 140.477 72.3018C141.278 72.5141 142.021 72.6203 142.707 72.6203C143.556 72.6203 144.169 72.4896 144.545 72.2283C144.92 71.9669 145.108 71.6157 145.108 71.1746C145.108 70.9133 145.035 70.6764 144.888 70.464C144.741 70.2517 144.455 70.0311 144.03 69.8024C143.605 69.5574 142.96 69.2552 142.094 68.8958C141.245 68.5527 140.534 68.2097 139.963 67.8666C139.407 67.5236 138.982 67.1152 138.688 66.6415C138.411 66.1514 138.272 65.5388 138.272 64.8037C138.272 63.6112 138.746 62.7127 139.693 62.1083C140.64 61.4876 141.89 61.1772 143.442 61.1772C144.259 61.1772 145.027 61.2589 145.745 61.4222C146.48 61.5692 147.216 61.8143 147.951 62.1573L146.971 64.4362C146.562 64.2565 146.154 64.1013 145.745 63.9706C145.353 63.8236 144.953 63.7092 144.545 63.6275C144.153 63.5459 143.752 63.505 143.344 63.505C142.674 63.505 142.168 63.6112 141.825 63.8236C141.482 64.0196 141.31 64.2973 141.31 64.6567C141.31 64.9344 141.392 65.1794 141.555 65.3918C141.735 65.5878 142.037 65.792 142.462 66.0044C142.903 66.2004 143.524 66.4618 144.324 66.7885C145.125 67.0989 145.803 67.4256 146.358 67.7686C146.93 68.0953 147.371 68.5037 147.681 68.9938C147.992 69.4839 148.147 70.1046 148.147 70.8561Z" fill="url(#paint0_linear_552_5175)"/>
<path d="M35.7802 68.1L30.3329 72.4578C28.2947 74.0884 25.3986 74.0884 23.3604 72.4578V72.4578C20.5677 70.2237 20.5677 65.9763 23.3604 63.7421V63.7421C25.3986 62.1116 28.2947 62.1116 30.3329 63.7421L35.7802 68.1ZM35.7802 68.1L41.2275 72.4578C43.2657 74.0884 46.1619 74.0884 48.2001 72.4578V72.4578C50.9927 70.2237 50.9927 65.9763 48.2001 63.7421V63.7421C46.1619 62.1116 43.2657 62.1116 41.2275 63.7421L35.7802 68.1Z" stroke="url(#paint1_linear_552_5175)" stroke-width="2.37888"/>
</g>
<g filter="url(#filter1_d_552_5175)">
<path d="M66.6689 48.1581V30.3625M66.6689 30.3625V20.9834C66.6689 14.4868 74.9392 11.7301 78.8371 16.9273V16.9273C81.6056 20.6186 79.9441 25.9374 75.5668 27.3965L66.6689 30.3625ZM66.6689 30.3625L83.3062 48.1581" stroke="url(#paint2_linear_552_5175)" stroke-width="3.23135" stroke-linecap="round"/>
<path d="M66.6683 48.207H55.5885C55.0532 48.207 54.6191 47.773 54.6191 47.2376V26.5966C54.6191 21.0354 57.2189 15.794 61.6463 12.4288L62.5537 11.7392C70.2264 5.90745 81.1775 7.42177 86.9797 15.1168V15.1168C89.2559 18.1356 90.4871 21.8135 90.4871 25.5942V33.9864V44.3294C90.4871 46.4709 92.2232 48.207 94.3648 48.207V48.207C96.5063 48.207 98.2424 46.4709 98.2424 44.3294V42.711" stroke="url(#paint3_linear_552_5175)" stroke-width="3.23135" stroke-linecap="round"/>
</g>
<defs>
<filter id="filter0_d_552_5175" x="0.898438" y="57.207" width="152.248" height="29.973" filterUnits="userSpaceOnUse" color-interpolation-filters="sRGB">
<feFlood flood-opacity="0" result="BackgroundImageFix"/>
<feColorMatrix in="SourceAlpha" type="matrix" values="0 0 0 0 0 0 0 0 0 0 0 0 0 0 0 0 0 0 127 0" result="hardAlpha"/>
<feOffset dy="7.23077"/>
<feGaussianBlur stdDeviation="2.5"/>
<feComposite in2="hardAlpha" operator="out"/>
<feColorMatrix type="matrix" values="0 0 0 0 0.725 0 0 0 0 0.725 0 0 0 0 0.725 0 0 0 0.31 0"/>
<feBlend mode="normal" in2="BackgroundImageFix" result="effect1_dropShadow_552_5175"/>
<feBlend mode="normal" in="SourceGraphic" in2="effect1_dropShadow_552_5175" result="shape"/>
</filter>
<filter id="filter1_d_552_5175" x="50.4188" y="6.57422" width="52.0247" height="50.5076" filterUnits="userSpaceOnUse" color-interpolation-filters="sRGB">
<feFlood flood-opacity="0" result="BackgroundImageFix"/>
<feColorMatrix in="SourceAlpha" type="matrix" values="0 0 0 0 0 0 0 0 0 0 0 0 0 0 0 0 0 0 127 0" result="hardAlpha"/>
<feOffset dy="4.67253"/>
<feGaussianBlur stdDeviation="1.29254"/>
<feComposite in2="hardAlpha" operator="out"/>
<feColorMatrix type="matrix" values="0 0 0 0 0.72549 0 0 0 0 0.72549 0 0 0 0 0.72549 0 0 0 0.31 0"/>
<feBlend mode="normal" in2="BackgroundImageFix" result="effect1_dropShadow_552_5175"/>
<feBlend mode="normal" in="SourceGraphic" in2="effect1_dropShadow_552_5175" result="shape"/>
</filter>
<linearGradient id="paint0_linear_552_5175" x1="76.6191" y1="48.7031" x2="76.6191" y2="75.2486" gradientUnits="userSpaceOnUse">
<stop stop-color="#FF0F0F"/>
<stop offset="0.942708" stop-color="#FF8595"/>
</linearGradient>
<linearGradient id="paint1_linear_552_5175" x1="35.7802" y1="60.9531" x2="35.7802" y2="75.2468" gradientUnits="userSpaceOnUse">
<stop stop-color="#FF0F0F"/>
<stop offset="0.942708" stop-color="#FF8595"/>
</linearGradient>
<linearGradient id="paint2_linear_552_5175" x1="75.5668" y1="0.703125" x2="75.5668" y2="48.1581" gradientUnits="userSpaceOnUse">
<stop stop-color="#FF0F0F"/>
<stop offset="0.942708" stop-color="#FF8595"/>
</linearGradient>
<linearGradient id="paint3_linear_552_5175" x1="78.0222" y1="1.16797" x2="78.0222" y2="48.207" gradientUnits="userSpaceOnUse">
<stop stop-color="#FF0F0F"/>
<stop offset="0.942708" stop-color="#FF8595"/>
</linearGradient>
</defs>
</svg>
