<svg width="262" height="59" viewBox="0 0 262 59" fill="none" xmlns="http://www.w3.org/2000/svg">
<g filter="url(#filter0_d_518_4895)">
<path d="M13.8418 15.0234C16.5606 15.0234 18.8022 15.356 20.5665 16.0212C22.3308 16.6865 23.6468 17.6988 24.5145 19.0582C25.3822 20.3886 25.816 22.0806 25.816 24.1342C25.816 25.6382 25.5268 26.9252 24.9483 27.9954C24.3988 29.0655 23.6757 29.9622 22.7791 30.6852C21.8825 31.3794 20.9135 31.9434 19.8723 32.3772L28.7662 46H22.5188L15.1 33.7655H10.588V46H5.03477V15.0234H13.8418ZM13.4948 19.6655H10.588V29.2102H13.6683C15.2012 29.2102 16.4449 29.0222 17.3994 28.6462C18.3538 28.2702 19.048 27.7206 19.4818 26.9975C19.9446 26.2745 20.176 25.3778 20.176 24.3077C20.176 23.1797 19.9302 22.2831 19.4385 21.6178C18.9468 20.9237 18.2092 20.432 17.2258 20.1428C16.2714 19.8246 15.0277 19.6655 13.4948 19.6655ZM115.853 22.0517C118.514 22.0517 120.509 22.7314 121.84 24.0908C123.199 25.4502 123.879 27.6483 123.879 30.6852V46H118.412V31.7265C118.412 29.9911 118.094 28.6895 117.458 27.8218C116.822 26.9252 115.809 26.4769 114.421 26.4769C112.512 26.4769 111.153 27.0988 110.343 28.3425C109.533 29.5862 109.128 31.3938 109.128 33.7655V46H103.662V31.7265C103.662 30.5695 103.517 29.6006 103.228 28.8197C102.938 28.0388 102.49 27.4603 101.883 27.0843C101.304 26.6794 100.552 26.4769 99.6268 26.4769C98.3252 26.4769 97.284 26.7951 96.5031 27.4314C95.7222 28.0388 95.1726 28.9354 94.8545 30.1212C94.5363 31.3071 94.3772 32.7677 94.3772 34.5031V46H88.9108V22.4855H93.1191L93.9 25.5658H94.2037C94.6954 24.756 95.2883 24.0908 95.9825 23.5702C96.7056 23.0495 97.5009 22.6735 98.3686 22.4422C99.2652 22.1818 100.162 22.0517 101.058 22.0517C102.823 22.0517 104.312 22.3554 105.527 22.9628C106.742 23.5412 107.653 24.4523 108.26 25.696H108.694C109.417 24.4234 110.43 23.4978 111.731 22.9194C113.062 22.3409 114.435 22.0517 115.853 22.0517ZM157.67 22.0517C160.331 22.0517 162.326 22.7314 163.657 24.0908C165.016 25.4502 165.696 27.6483 165.696 30.6852V46H160.229V31.7265C160.229 29.9911 159.911 28.6895 159.275 27.8218C158.639 26.9252 157.626 26.4769 156.238 26.4769C154.329 26.4769 152.97 27.0988 152.16 28.3425C151.35 29.5862 150.945 31.3938 150.945 33.7655V46H145.479V31.7265C145.479 30.5695 145.334 29.6006 145.045 28.8197C144.755 28.0388 144.307 27.4603 143.7 27.0843C143.121 26.6794 142.369 26.4769 141.444 26.4769C140.142 26.4769 139.101 26.7951 138.32 27.4314C137.539 28.0388 136.99 28.9354 136.671 30.1212C136.353 31.3071 136.194 32.7677 136.194 34.5031V46H130.728V22.4855H134.936L135.717 25.5658H136.021C136.512 24.756 137.105 24.0908 137.799 23.5702C138.523 23.0495 139.318 22.6735 140.186 22.4422C141.082 22.1818 141.979 22.0517 142.875 22.0517C144.64 22.0517 146.129 22.3554 147.344 22.9628C148.559 23.5412 149.47 24.4523 150.077 25.696H150.511C151.234 24.4234 152.247 23.4978 153.548 22.9194C154.879 22.3409 156.252 22.0517 157.67 22.0517ZM181.916 22.0517C184.953 22.0517 187.252 22.7169 188.814 24.0474C190.405 25.3489 191.2 27.4025 191.2 30.208V46H187.339L186.254 42.7462H186.081C185.416 43.5849 184.721 44.2935 183.998 44.872C183.304 45.4215 182.494 45.812 181.569 46.0434C180.672 46.3037 179.573 46.4338 178.272 46.4338C176.883 46.4338 175.625 46.1735 174.497 45.6529C173.398 45.1323 172.53 44.3369 171.894 43.2668C171.258 42.1677 170.94 40.7938 170.94 39.1452C170.94 36.7157 171.822 34.8935 173.586 33.6788C175.379 32.4351 178.084 31.7554 181.699 31.6397L185.777 31.5095V30.3382C185.777 28.8342 185.416 27.764 184.692 27.1277C183.969 26.4914 182.957 26.1732 181.656 26.1732C180.47 26.1732 179.327 26.3468 178.228 26.6938C177.129 27.0409 176.059 27.4458 175.018 27.9086L173.282 24.0908C174.439 23.4834 175.755 22.9917 177.23 22.6157C178.734 22.2397 180.296 22.0517 181.916 22.0517ZM182.914 34.9803C180.513 35.0671 178.85 35.4865 177.924 36.2385C176.999 36.9615 176.536 37.9449 176.536 39.1886C176.536 40.2877 176.869 41.0831 177.534 41.5748C178.199 42.0665 179.052 42.3123 180.094 42.3123C181.684 42.3123 183.029 41.864 184.128 40.9674C185.228 40.0418 185.777 38.6825 185.777 36.8892V34.8935L182.914 34.9803ZM207.161 42.052C207.855 42.052 208.52 41.9942 209.157 41.8785C209.793 41.7338 210.386 41.5748 210.935 41.4012V45.4794C210.357 45.7397 209.605 45.9566 208.679 46.1302C207.754 46.3326 206.785 46.4338 205.773 46.4338C204.442 46.4338 203.227 46.2169 202.128 45.7831C201.058 45.3203 200.191 44.5394 199.525 43.4403C198.889 42.3412 198.571 40.8083 198.571 38.8415V26.6071H195.404V24.2209L198.875 22.312L200.61 17.3228H204.037V22.4855H210.719V26.6071H204.037V38.7982C204.037 39.8972 204.327 40.7215 204.905 41.2711C205.483 41.7917 206.235 42.052 207.161 42.052ZM225.133 22.0517C227.244 22.0517 229.052 22.4855 230.556 23.3532C232.089 24.192 233.275 25.4068 234.114 26.9975C234.952 28.5594 235.372 30.4683 235.372 32.7243V35.5009H219.84C219.898 37.6412 220.491 39.3043 221.619 40.4902C222.747 41.6471 224.309 42.2255 226.304 42.2255C227.837 42.2255 229.197 42.0809 230.383 41.7917C231.597 41.4735 232.841 41.0252 234.114 40.4468V44.8286C232.957 45.3782 231.756 45.7831 230.513 46.0434C229.269 46.3037 227.78 46.4338 226.044 46.4338C223.759 46.4338 221.72 46 219.927 45.1323C218.163 44.2357 216.774 42.8908 215.762 41.0975C214.779 39.3043 214.287 37.0772 214.287 34.4163C214.287 31.7265 214.735 29.4705 215.632 27.6483C216.557 25.7972 217.83 24.4089 219.45 23.4834C221.069 22.5289 222.964 22.0517 225.133 22.0517ZM225.133 26.0865C223.687 26.0865 222.501 26.5637 221.576 27.5182C220.679 28.4437 220.144 29.832 219.97 31.6831H230.079C230.079 30.584 229.891 29.6151 229.515 28.7763C229.168 27.9375 228.633 27.2868 227.91 26.824C227.187 26.3323 226.261 26.0865 225.133 26.0865ZM256.893 39.1886C256.893 40.7505 256.517 42.0809 255.765 43.18C255.013 44.2502 253.899 45.06 252.424 45.6095C250.978 46.1591 249.199 46.4338 247.088 46.4338C245.439 46.4338 244.022 46.3182 242.836 46.0868C241.65 45.8554 240.522 45.4938 239.452 45.0022V40.36C240.609 40.9095 241.896 41.3723 243.314 41.7483C244.731 42.1243 246.047 42.3123 247.262 42.3123C248.766 42.3123 249.85 42.0809 250.515 41.6182C251.181 41.1554 251.513 40.5335 251.513 39.7526C251.513 39.2898 251.383 38.8705 251.123 38.4945C250.862 38.1185 250.356 37.728 249.604 37.3231C248.852 36.8892 247.71 36.3542 246.177 35.7178C244.673 35.1105 243.415 34.5031 242.402 33.8957C241.419 33.2883 240.667 32.5652 240.146 31.7265C239.655 30.8588 239.409 29.7742 239.409 28.4726C239.409 26.3612 240.248 24.7705 241.925 23.7003C243.603 22.6012 245.815 22.0517 248.563 22.0517C250.009 22.0517 251.369 22.1963 252.641 22.4855C253.943 22.7458 255.244 23.1797 256.546 23.7871L254.81 27.8218C254.087 27.5037 253.364 27.2289 252.641 26.9975C251.947 26.7372 251.238 26.5348 250.515 26.3902C249.821 26.2455 249.113 26.1732 248.39 26.1732C247.204 26.1732 246.307 26.3612 245.7 26.7372C245.092 27.0843 244.789 27.576 244.789 28.2123C244.789 28.704 244.933 29.1378 245.222 29.5138C245.541 29.8609 246.076 30.2225 246.828 30.5985C247.609 30.9455 248.708 31.4083 250.125 31.9868C251.542 32.5363 252.742 33.1148 253.726 33.7222C254.738 34.3006 255.519 35.0237 256.069 35.8914C256.618 36.7591 256.893 37.8582 256.893 39.1886Z" fill="url(#paint0_linear_518_4895)"/>
<path d="M57.9422 34.3453L48.2975 42.061C44.6888 44.948 39.561 44.948 35.9523 42.061V42.061C31.0078 38.1054 31.0078 30.5851 35.9523 26.6295V26.6295C39.561 23.7425 44.6888 23.7425 48.2975 26.6295L57.9422 34.3453ZM57.9422 34.3453L67.5869 42.061C71.1957 44.948 76.3234 44.948 79.9321 42.061V42.061C84.8767 38.1054 84.8767 30.5851 79.9321 26.6295V26.6295C76.3234 23.7425 71.1957 23.7425 67.5869 26.6295L57.9422 34.3453Z" stroke="url(#paint1_linear_518_4895)" stroke-width="4.21192"/>
</g>
<defs>
<filter id="filter0_d_518_4895" x="0.0351562" y="15.0234" width="261.857" height="43.6409" filterUnits="userSpaceOnUse" color-interpolation-filters="sRGB">
<feFlood flood-opacity="0" result="BackgroundImageFix"/>
<feColorMatrix in="SourceAlpha" type="matrix" values="0 0 0 0 0 0 0 0 0 0 0 0 0 0 0 0 0 0 127 0" result="hardAlpha"/>
<feOffset dy="7.23077"/>
<feGaussianBlur stdDeviation="2.5"/>
<feComposite in2="hardAlpha" operator="out"/>
<feColorMatrix type="matrix" values="0 0 0 0 0.725 0 0 0 0 0.725 0 0 0 0 0.725 0 0 0 0.31 0"/>
<feBlend mode="normal" in2="BackgroundImageFix" result="effect1_dropShadow_518_4895"/>
<feBlend mode="normal" in="SourceGraphic" in2="effect1_dropShadow_518_4895" result="shape"/>
</filter>
<linearGradient id="paint0_linear_518_4895" x1="130.25" y1="0" x2="130.25" y2="47" gradientUnits="userSpaceOnUse">
<stop stop-color="#FF0F0F"/>
<stop offset="0.942708" stop-color="#FF8595"/>
</linearGradient>
<linearGradient id="paint1_linear_518_4895" x1="57.9422" y1="21.6914" x2="57.9422" y2="46.9991" gradientUnits="userSpaceOnUse">
<stop stop-color="#FF0F0F"/>
<stop offset="0.942708" stop-color="#FF8595"/>
</linearGradient>
</defs>
</svg>
