<svg width="30" height="30" viewBox="0 0 30 30" fill="none" xmlns="http://www.w3.org/2000/svg">
<path d="M15.1691 2.81754C8.3148 2.72496 2.7191 8.32066 2.81168 15.175C2.90309 21.7486 8.25562 27.1011 14.8293 27.1925C21.6847 27.2863 27.2793 21.6906 27.1855 14.8363C27.0953 8.26148 21.7427 2.90894 15.1691 2.81754ZM22.5765 21.9923C22.5532 22.0176 22.5246 22.0374 22.4927 22.0503C22.4609 22.0633 22.4266 22.0691 22.3922 22.0673C22.3579 22.0655 22.3244 22.0562 22.2941 22.04C22.2637 22.0238 22.2373 22.0011 22.2168 21.9736C21.6927 21.2879 21.0508 20.7008 20.3212 20.2398C18.8295 19.2824 16.9392 18.755 14.9992 18.755C13.0591 18.755 11.1689 19.2824 9.67711 20.2398C8.94754 20.7006 8.30572 21.2875 7.7816 21.973C7.76101 22.0005 7.73462 22.0232 7.70429 22.0394C7.67396 22.0556 7.64044 22.0649 7.60611 22.0667C7.57178 22.0685 7.53747 22.0627 7.50563 22.0497C7.47378 22.0368 7.44518 22.017 7.42184 21.9918C5.7025 20.1357 4.72857 17.7105 4.68668 15.1808C4.59117 9.47906 9.26988 4.7066 14.974 4.69254C20.6781 4.67848 25.3117 9.31031 25.3117 15.005C25.3136 17.5957 24.3367 20.0915 22.5765 21.9923V21.9923Z" fill="#575757"/>
<path d="M14.9993 8.44141C13.8439 8.44141 12.7991 8.87441 12.0568 9.66133C11.3144 10.4482 10.9435 11.5363 11.0273 12.7041C11.1972 15.0039 12.979 16.8789 14.9993 16.8789C17.0197 16.8789 18.798 15.0039 18.9714 12.7047C19.0581 11.548 18.6902 10.4699 17.9355 9.66836C17.1902 8.87734 16.1472 8.44141 14.9993 8.44141Z" fill="#575757"/>
</svg>
