<svg width="20" height="20" viewBox="0 0 20 20" fill="none" xmlns="http://www.w3.org/2000/svg">
<path d="M12.7096 5.0013C12.7096 6.49708 11.4971 7.70964 10.0013 7.70964C8.50555 7.70964 7.29297 6.49708 7.29297 5.0013C7.29297 3.50553 8.50555 2.29297 10.0013 2.29297C11.4971 2.29297 12.7096 3.50553 12.7096 5.0013Z" stroke="#575757" stroke-width="1.5"/>
<path d="M15.2096 14.1667C15.2096 15.063 14.7021 15.9335 13.7628 16.6043C12.8248 17.2744 11.4969 17.7083 10.0013 17.7083C8.50572 17.7083 7.17781 17.2744 6.23979 16.6043C5.30056 15.9335 4.79297 15.063 4.79297 14.1667C4.79297 13.2703 5.30056 12.3998 6.23979 11.729C7.17781 11.0589 8.50572 10.625 10.0013 10.625C11.4969 10.625 12.8248 11.0589 13.7628 11.729C14.7021 12.3998 15.2096 13.2703 15.2096 14.1667Z" stroke="#575757" stroke-width="1.5"/>
</svg>
