<svg width="300" height="316" viewBox="0 0 300 316" fill="none" xmlns="http://www.w3.org/2000/svg">
<path d="M239.501 259.776V281.224" stroke="#1B1B1B" stroke-linecap="round"/>
<path d="M250.226 270.5H228.777" stroke="#1B1B1B" stroke-linecap="round"/>
<path d="M274.573 270.5C274.573 251.13 258.87 235.427 239.5 235.427C220.13 235.427 204.427 251.13 204.427 270.5C204.427 289.87 220.13 305.573 239.5 305.573C258.87 305.573 274.573 289.87 274.573 270.5Z" stroke="#1B1B1B"/>
<circle cx="150" cy="150" r="149.5" stroke="#262B2C"/>
<path d="M179.969 93.25C179.969 110.077 166.327 123.719 149.5 123.719C132.673 123.719 119.031 110.077 119.031 93.25C119.031 76.4225 132.673 62.7812 149.5 62.7812C166.327 62.7812 179.969 76.4225 179.969 93.25Z" stroke="#262B2C" stroke-width="1.5"/>
<path d="M208.094 196.562C208.094 206.646 202.383 216.439 191.817 223.986C181.264 231.525 166.325 236.406 149.5 236.406C132.675 236.406 117.736 231.525 107.183 223.986C96.6167 216.439 90.9062 206.646 90.9062 196.562C90.9062 186.479 96.6167 176.686 107.183 169.139C117.736 161.6 132.675 156.719 149.5 156.719C166.325 156.719 181.264 161.6 191.817 169.139C202.383 176.686 208.094 186.479 208.094 196.562Z" stroke="#262B2C" stroke-width="1.5"/>
</svg>
