<svg width="300" height="314" viewBox="0 0 300 314" fill="none" xmlns="http://www.w3.org/2000/svg">
<path d="M238.501 257.776V279.224" stroke="black" stroke-linecap="round"/>
<path d="M249.226 268.5H227.777" stroke="black" stroke-linecap="round"/>
<path d="M273.573 268.5C273.573 249.13 257.87 233.427 238.5 233.427C219.13 233.427 203.427 249.13 203.427 268.5C203.427 287.87 219.13 303.573 238.5 303.573C257.87 303.573 273.573 287.87 273.573 268.5Z" stroke="black"/>
<circle cx="150" cy="150" r="149.5" stroke="black"/>
<path d="M179.969 93.25C179.969 110.077 166.327 123.719 149.5 123.719C132.673 123.719 119.031 110.077 119.031 93.25C119.031 76.4225 132.673 62.7812 149.5 62.7812C166.327 62.7812 179.969 76.4225 179.969 93.25Z" stroke="black" stroke-width="1.5"/>
<path d="M208.094 196.562C208.094 206.646 202.383 216.439 191.817 223.986C181.264 231.525 166.325 236.406 149.5 236.406C132.675 236.406 117.736 231.525 107.183 223.986C96.6167 216.439 90.9062 206.646 90.9062 196.562C90.9062 186.479 96.6167 176.686 107.183 169.139C117.736 161.6 132.675 156.719 149.5 156.719C166.325 156.719 181.264 161.6 191.817 169.139C202.383 176.686 208.094 186.479 208.094 196.562Z" stroke="black" stroke-width="1.5"/>
</svg>
