<svg width="25" height="25" viewBox="0 0 25 25" fill="none" xmlns="http://www.w3.org/2000/svg">
<path d="M12.6406 2.3486C6.92868 2.27145 2.26559 6.93454 2.34274 12.6465C2.41891 18.1245 6.87936 22.5849 12.3574 22.6611C18.0703 22.7392 22.7324 18.0761 22.6543 12.3642C22.5791 6.88522 18.1186 2.42477 12.6406 2.3486ZM18.8134 18.3276C18.794 18.3486 18.7702 18.3651 18.7436 18.3759C18.7171 18.3867 18.6885 18.3915 18.6599 18.39C18.6313 18.3886 18.6033 18.3808 18.5781 18.3673C18.5528 18.3538 18.5308 18.3349 18.5136 18.312C18.0769 17.7406 17.542 17.2513 16.934 16.8672C15.6909 16.0693 14.1157 15.6298 12.499 15.6298C10.8823 15.6298 9.3071 16.0693 8.06393 16.8672C7.45596 17.2512 6.92111 17.7402 6.48434 18.3115C6.46718 18.3344 6.44519 18.3533 6.41991 18.3668C6.39464 18.3803 6.36671 18.3881 6.3381 18.3896C6.30949 18.3911 6.2809 18.3862 6.25436 18.3754C6.22783 18.3646 6.20399 18.3481 6.18454 18.3271C4.75176 16.7804 3.94015 14.7594 3.90524 12.6513C3.82565 7.89987 7.72458 3.92282 12.478 3.9111C17.2314 3.89938 21.0927 7.75924 21.0927 12.5049C21.0944 14.6637 20.2802 16.7435 18.8134 18.3276Z" fill="#666666"/>
<path d="M12.4995 7.03516C11.5366 7.03516 10.666 7.396 10.0473 8.05176C9.42865 8.70752 9.11957 9.61426 9.18939 10.5874C9.33099 12.5039 10.8159 14.0664 12.4995 14.0664C14.183 14.0664 15.665 12.5039 15.8095 10.5879C15.8818 9.62402 15.5751 8.72559 14.9462 8.05762C14.3251 7.39844 13.456 7.03516 12.4995 7.03516Z" fill="#666666"/>
</svg>
