<svg width="25" height="25" viewBox="0 0 25 25" fill="none" xmlns="http://www.w3.org/2000/svg">
<path d="M3.90625 10.3516V21.875C3.90625 22.0822 3.98856 22.2809 4.13507 22.4274C4.28159 22.5739 4.4803 22.6562 4.6875 22.6562H9.375V16.0156C9.375 15.7048 9.49846 15.4068 9.71823 15.187C9.938 14.9672 10.2361 14.8437 10.5469 14.8437H14.4531C14.7639 14.8437 15.062 14.9672 15.2818 15.187C15.5015 15.4068 15.625 15.7048 15.625 16.0156V22.6562H20.3125C20.5197 22.6562 20.7184 22.5739 20.8649 22.4274C21.0114 22.2809 21.0938 22.0822 21.0938 21.875V10.3516" stroke="#666666" stroke-width="1.5" stroke-linecap="round" stroke-linejoin="round"/>
<path d="M23.4375 12.5031L13.0317 2.54212C12.7876 2.2843 12.2168 2.28137 11.9683 2.54212L1.5625 12.5031M19.5312 8.74329V3.12805H17.1875V6.49719" stroke="#666666" stroke-width="1.5" stroke-linecap="round" stroke-linejoin="round"/>
</svg>
