<svg width="16" height="22" viewBox="0 0 16 22" fill="none" xmlns="http://www.w3.org/2000/svg">
<path d="M7.75 1C4.02344 1 1 3.87766 1 7.42188C1 11.5 5.5 17.9627 7.15234 20.1948C7.22093 20.2891 7.31083 20.3658 7.41469 20.4186C7.51856 20.4715 7.63346 20.499 7.75 20.499C7.86655 20.499 7.98144 20.4715 8.08531 20.4186C8.18918 20.3658 8.27907 20.2891 8.34766 20.1948C10 17.9636 14.5 11.5033 14.5 7.42188C14.5 3.87766 11.4766 1 7.75 1Z" stroke="#666666" stroke-width="1.5" stroke-linecap="round" stroke-linejoin="round"/>
<path d="M8 10.2539C9.24264 10.2539 10.25 9.24655 10.25 8.00391C10.25 6.76127 9.24264 5.75391 8 5.75391C6.75736 5.75391 5.75 6.76127 5.75 8.00391C5.75 9.24655 6.75736 10.2539 8 10.2539Z" stroke="#666666" stroke-width="1.5" stroke-linecap="round" stroke-linejoin="round"/>
</svg>
